<mxfile host="65bd71144e">
    <diagram id="TriR7_6b0EK6BspnrxUf" name="Page-1">
        <mxGraphModel dx="1100" dy="695" grid="1" gridSize="10" guides="1" tooltips="1" connect="1" arrows="1" fold="1" page="1" pageScale="1" pageWidth="827" pageHeight="1169" math="0" shadow="0">
            <root>
                <mxCell id="0"/>
                <mxCell id="1" parent="0"/>
                <mxCell id="9" style="edgeStyle=none;html=1;exitX=1;exitY=0.5;exitDx=0;exitDy=0;exitPerimeter=0;entryX=0;entryY=0.5;entryDx=0;entryDy=0;strokeWidth=3;" edge="1" parent="1" source="45" target="26">
                    <mxGeometry relative="1" as="geometry">
                        <mxPoint x="230" y="145" as="sourcePoint"/>
                        <mxPoint x="300" y="145" as="targetPoint"/>
                    </mxGeometry>
                </mxCell>
                <mxCell id="11" value="Sign IN" style="edgeStyle=none;html=1;exitX=1;exitY=0.5;exitDx=0;exitDy=0;entryX=0;entryY=0.5;entryDx=0;entryDy=0;strokeWidth=3;fontFamily=Tahoma;labelPosition=center;verticalLabelPosition=top;align=center;verticalAlign=bottom;" edge="1" parent="1" source="26" target="10">
                    <mxGeometry relative="1" as="geometry">
                        <mxPoint x="410" y="145" as="sourcePoint"/>
                    </mxGeometry>
                </mxCell>
                <mxCell id="13" style="edgeStyle=none;html=1;exitX=1;exitY=0.5;exitDx=0;exitDy=0;entryX=0;entryY=0.5;entryDx=0;entryDy=0;strokeWidth=3;" edge="1" parent="1" source="10" target="28">
                    <mxGeometry relative="1" as="geometry">
                        <mxPoint x="690" y="145" as="targetPoint"/>
                    </mxGeometry>
                </mxCell>
                <mxCell id="10" value="&lt;br&gt;Enter user details" style="html=1;strokeWidth=3;shape=manualInput;whiteSpace=wrap;rounded=1;size=26;arcSize=11;shadow=0;sketch=0;verticalAlign=middle;labelPosition=center;verticalLabelPosition=middle;align=center;fontFamily=Tahoma;" vertex="1" parent="1">
                    <mxGeometry x="490" y="110" width="130" height="70" as="geometry"/>
                </mxCell>
                <mxCell id="15" value="Cancel" style="edgeStyle=none;html=1;exitX=0.5;exitY=0;exitDx=0;exitDy=0;entryX=0.5;entryY=0;entryDx=0;entryDy=0;entryPerimeter=0;strokeWidth=3;verticalAlign=top;labelPosition=center;verticalLabelPosition=bottom;align=center;" edge="1" parent="1" source="28" target="45">
                    <mxGeometry x="-0.7164" relative="1" as="geometry">
                        <mxPoint x="745" y="92.5" as="sourcePoint"/>
                        <mxPoint x="175" y="110" as="targetPoint"/>
                        <Array as="points">
                            <mxPoint x="745" y="40"/>
                            <mxPoint x="180" y="40"/>
                        </Array>
                        <mxPoint as="offset"/>
                    </mxGeometry>
                </mxCell>
                <mxCell id="19" value="Sign IN" style="edgeStyle=none;shape=connector;rounded=1;html=1;exitX=0.5;exitY=1;exitDx=0;exitDy=0;entryX=0.5;entryY=0;entryDx=0;entryDy=0;labelBackgroundColor=default;strokeColor=default;strokeWidth=3;fontFamily=Tahoma;fontSize=11;fontColor=default;endArrow=classic;verticalAlign=middle;labelPosition=center;verticalLabelPosition=middle;align=center;horizontal=1;" edge="1" parent="1" source="28" target="18">
                    <mxGeometry relative="1" as="geometry">
                        <mxPoint x="745" y="197.5" as="sourcePoint"/>
                    </mxGeometry>
                </mxCell>
                <mxCell id="21" value="Yes" style="edgeStyle=none;shape=connector;rounded=1;html=1;exitX=0;exitY=0.5;exitDx=0;exitDy=0;entryX=1;entryY=0.5;entryDx=0;entryDy=0;labelBackgroundColor=default;strokeColor=default;strokeWidth=3;fontFamily=Tahoma;fontSize=11;fontColor=default;endArrow=classic;" edge="1" parent="1" source="18" target="20">
                    <mxGeometry relative="1" as="geometry"/>
                </mxCell>
                <mxCell id="23" value="No" style="edgeStyle=none;shape=connector;rounded=1;html=1;exitX=0.5;exitY=1;exitDx=0;exitDy=0;entryX=0.5;entryY=0;entryDx=0;entryDy=0;entryPerimeter=0;labelBackgroundColor=default;strokeColor=default;strokeWidth=3;fontFamily=Tahoma;fontSize=11;fontColor=default;endArrow=classic;spacingTop=0;spacingLeft=0;spacingRight=0;spacingBottom=0;spacing=2;jumpSize=6;jumpStyle=gap;endSize=6;" edge="1" parent="1" source="18" target="22">
                    <mxGeometry relative="1" as="geometry"/>
                </mxCell>
                <mxCell id="18" value="Check if user &lt;br&gt;has read &lt;br&gt;Safety Brief" style="rounded=1;whiteSpace=wrap;html=1;absoluteArcSize=1;arcSize=14;strokeWidth=3;shadow=0;strokeColor=default;fontFamily=Tahoma;fontSize=11;fontColor=default;fillColor=default;" vertex="1" parent="1">
                    <mxGeometry x="695" y="360" width="100" height="100" as="geometry"/>
                </mxCell>
                <mxCell id="30" style="edgeStyle=none;shape=connector;rounded=1;html=1;entryX=0.5;entryY=1;entryDx=0;entryDy=0;entryPerimeter=0;labelBackgroundColor=default;strokeColor=default;strokeWidth=3;fontFamily=Tahoma;fontSize=11;fontColor=default;endArrow=classic;exitX=0.5;exitY=0;exitDx=0;exitDy=0;exitPerimeter=0;" edge="1" parent="1" source="32" target="45">
                    <mxGeometry relative="1" as="geometry">
                        <mxPoint x="560" y="250" as="sourcePoint"/>
                        <mxPoint x="175" y="180" as="targetPoint"/>
                        <Array as="points">
                            <mxPoint x="560" y="220"/>
                            <mxPoint x="180" y="220"/>
                        </Array>
                    </mxGeometry>
                </mxCell>
                <mxCell id="33" style="edgeStyle=none;shape=connector;rounded=1;html=1;exitX=0.5;exitY=0;exitDx=0;exitDy=0;entryX=0.5;entryY=1;entryDx=0;entryDy=0;entryPerimeter=0;labelBackgroundColor=default;strokeColor=default;strokeWidth=3;fontFamily=Tahoma;fontSize=11;fontColor=default;endArrow=classic;" edge="1" parent="1" source="20" target="32">
                    <mxGeometry relative="1" as="geometry"/>
                </mxCell>
                <mxCell id="20" value="User added to&lt;br&gt;DB and set&lt;br&gt;&amp;nbsp;timeIn&amp;nbsp;to now" style="rounded=1;whiteSpace=wrap;html=1;absoluteArcSize=1;arcSize=14;strokeWidth=3;shadow=0;strokeColor=default;fontFamily=Tahoma;fontSize=11;fontColor=default;fillColor=default;perimeterSpacing=0;" vertex="1" parent="1">
                    <mxGeometry x="510" y="360" width="100" height="100" as="geometry"/>
                </mxCell>
                <mxCell id="25" value="" style="edgeStyle=none;shape=connector;rounded=1;html=1;labelBackgroundColor=default;strokeColor=default;strokeWidth=3;fontFamily=Tahoma;fontSize=11;fontColor=default;endArrow=classic;" edge="1" parent="1" source="22" target="24">
                    <mxGeometry relative="1" as="geometry"/>
                </mxCell>
                <mxCell id="22" value="DISPLAY:&lt;br&gt;Safety Brief &lt;br&gt;Page" style="strokeWidth=3;html=1;shape=mxgraph.flowchart.display;whiteSpace=wrap;rounded=1;shadow=0;strokeColor=default;fontFamily=Tahoma;fontSize=11;fontColor=default;fillColor=default;" vertex="1" parent="1">
                    <mxGeometry x="685" y="547.5" width="120" height="70" as="geometry"/>
                </mxCell>
                <mxCell id="29" value="Yes" style="edgeStyle=none;shape=connector;rounded=1;html=1;exitX=0.5;exitY=0;exitDx=0;exitDy=0;entryX=0.5;entryY=1;entryDx=0;entryDy=0;labelBackgroundColor=default;strokeColor=default;strokeWidth=3;fontFamily=Tahoma;fontSize=11;fontColor=default;endArrow=classic;" edge="1" parent="1" source="24" target="20">
                    <mxGeometry relative="1" as="geometry"/>
                </mxCell>
                <mxCell id="43" value="No" style="edgeStyle=none;shape=connector;rounded=1;html=1;exitX=0;exitY=0.5;exitDx=0;exitDy=0;entryX=0.5;entryY=1;entryDx=0;entryDy=0;entryPerimeter=0;labelBackgroundColor=default;strokeColor=default;strokeWidth=3;fontFamily=Tahoma;fontSize=11;fontColor=default;endArrow=classic;spacingLeft=0;targetPerimeterSpacing=0;jumpStyle=none;labelPosition=center;verticalLabelPosition=top;align=center;verticalAlign=bottom;" edge="1" parent="1" source="24" target="45">
                    <mxGeometry x="-0.9658" relative="1" as="geometry">
                        <mxPoint x="175" y="180" as="targetPoint"/>
                        <Array as="points">
                            <mxPoint x="460" y="583"/>
                            <mxPoint x="460" y="220"/>
                            <mxPoint x="180" y="220"/>
                        </Array>
                        <mxPoint as="offset"/>
                    </mxGeometry>
                </mxCell>
                <mxCell id="24" value="User Agrees" style="rhombus;whiteSpace=wrap;html=1;fontSize=11;fontFamily=Tahoma;strokeWidth=3;rounded=1;shadow=0;" vertex="1" parent="1">
                    <mxGeometry x="502.5" y="530" width="115" height="105" as="geometry"/>
                </mxCell>
                <mxCell id="35" value="Sign OUT" style="edgeStyle=none;shape=connector;rounded=1;html=1;exitX=0.5;exitY=1;exitDx=0;exitDy=0;entryX=0.5;entryY=0;entryDx=0;entryDy=0;entryPerimeter=0;labelBackgroundColor=default;strokeColor=default;strokeWidth=3;fontFamily=Tahoma;fontSize=11;fontColor=default;endArrow=classic;jumpStyle=gap;" edge="1" parent="1" source="26" target="34">
                    <mxGeometry relative="1" as="geometry"/>
                </mxCell>
                <mxCell id="26" value="Sign in or&lt;br&gt;Sign out?" style="rhombus;whiteSpace=wrap;html=1;fontSize=11;fontFamily=Tahoma;strokeWidth=3;rounded=1;shadow=0;" vertex="1" parent="1">
                    <mxGeometry x="300" y="92.5" width="115" height="105" as="geometry"/>
                </mxCell>
                <mxCell id="28" value="Sign in or&lt;br&gt;Cancel" style="rhombus;whiteSpace=wrap;html=1;fontSize=11;fontFamily=Tahoma;strokeWidth=3;rounded=1;shadow=0;" vertex="1" parent="1">
                    <mxGeometry x="687.5" y="92.5" width="115" height="105" as="geometry"/>
                </mxCell>
                <mxCell id="32" value="DISPLAY:&lt;br&gt;Welcome User&lt;br&gt;message" style="strokeWidth=3;html=1;shape=mxgraph.flowchart.display;whiteSpace=wrap;rounded=1;shadow=0;strokeColor=default;fontFamily=Tahoma;fontSize=11;fontColor=default;fillColor=default;" vertex="1" parent="1">
                    <mxGeometry x="501" y="250" width="118" height="70" as="geometry"/>
                </mxCell>
                <mxCell id="38" style="edgeStyle=none;shape=connector;rounded=1;html=1;exitX=0.5;exitY=1;exitDx=0;exitDy=0;exitPerimeter=0;entryX=0.5;entryY=0;entryDx=0;entryDy=0;labelBackgroundColor=default;strokeColor=default;strokeWidth=3;fontFamily=Tahoma;fontSize=11;fontColor=default;endArrow=classic;" edge="1" parent="1" source="34" target="37">
                    <mxGeometry relative="1" as="geometry"/>
                </mxCell>
                <mxCell id="34" value="DISPLAY:&lt;br&gt;Current Visitors&lt;br&gt;Page" style="strokeWidth=3;html=1;shape=mxgraph.flowchart.display;whiteSpace=wrap;rounded=1;shadow=0;strokeColor=default;fontFamily=Tahoma;fontSize=11;fontColor=default;fillColor=default;" vertex="1" parent="1">
                    <mxGeometry x="292.5" y="290" width="130" height="70" as="geometry"/>
                </mxCell>
                <mxCell id="39" value="Go Back" style="edgeStyle=none;shape=connector;rounded=1;html=1;exitX=0;exitY=0.5;exitDx=0;exitDy=0;entryX=0.5;entryY=1;entryDx=0;entryDy=0;entryPerimeter=0;labelBackgroundColor=default;strokeColor=default;strokeWidth=3;fontFamily=Tahoma;fontSize=11;fontColor=default;endArrow=classic;spacingBottom=0;labelPosition=center;verticalLabelPosition=top;align=center;verticalAlign=bottom;" edge="1" parent="1" source="37" target="45">
                    <mxGeometry x="-0.804" y="-3" relative="1" as="geometry">
                        <mxPoint x="175" y="180" as="targetPoint"/>
                        <Array as="points">
                            <mxPoint x="180" y="463"/>
                        </Array>
                        <mxPoint as="offset"/>
                    </mxGeometry>
                </mxCell>
                <mxCell id="41" value="Sign Out" style="edgeStyle=none;shape=connector;rounded=1;html=1;exitX=0.5;exitY=1;exitDx=0;exitDy=0;entryX=0.5;entryY=0;entryDx=0;entryDy=0;labelBackgroundColor=default;strokeColor=default;strokeWidth=3;fontFamily=Tahoma;fontSize=11;fontColor=default;endArrow=classic;" edge="1" parent="1" source="37" target="40">
                    <mxGeometry x="-0.5385" relative="1" as="geometry">
                        <mxPoint as="offset"/>
                    </mxGeometry>
                </mxCell>
                <mxCell id="37" value="Sign out or&lt;br&gt;Go Back?" style="rhombus;whiteSpace=wrap;html=1;fontSize=11;fontFamily=Tahoma;strokeWidth=3;rounded=1;shadow=0;" vertex="1" parent="1">
                    <mxGeometry x="300" y="410" width="115" height="105" as="geometry"/>
                </mxCell>
                <mxCell id="42" style="edgeStyle=none;shape=connector;rounded=1;html=1;exitX=0;exitY=0.5;exitDx=0;exitDy=0;entryX=0.5;entryY=1;entryDx=0;entryDy=0;entryPerimeter=0;labelBackgroundColor=default;strokeColor=default;strokeWidth=3;fontFamily=Tahoma;fontSize=11;fontColor=default;endArrow=classic;" edge="1" parent="1" source="40" target="45">
                    <mxGeometry relative="1" as="geometry">
                        <mxPoint x="175" y="180" as="targetPoint"/>
                        <Array as="points">
                            <mxPoint x="180" y="630"/>
                        </Array>
                    </mxGeometry>
                </mxCell>
                <mxCell id="40" value="User set timeIn &lt;br&gt;to null" style="rounded=1;whiteSpace=wrap;html=1;absoluteArcSize=1;arcSize=14;strokeWidth=3;shadow=0;strokeColor=default;fontFamily=Tahoma;fontSize=11;fontColor=default;fillColor=default;" vertex="1" parent="1">
                    <mxGeometry x="307.5" y="580" width="100" height="100" as="geometry"/>
                </mxCell>
                <mxCell id="46" style="edgeStyle=none;shape=connector;rounded=1;jumpStyle=gap;html=1;exitX=0.5;exitY=1;exitDx=0;exitDy=0;exitPerimeter=0;entryX=0;entryY=0.5;entryDx=0;entryDy=0;entryPerimeter=0;labelBackgroundColor=default;strokeColor=default;strokeWidth=3;fontFamily=Tahoma;fontSize=11;fontColor=default;endArrow=classic;endSize=6;" edge="1" parent="1" source="44" target="45">
                    <mxGeometry relative="1" as="geometry">
                        <Array as="points">
                            <mxPoint x="80" y="145"/>
                        </Array>
                    </mxGeometry>
                </mxCell>
                <mxCell id="44" value="START" style="strokeWidth=3;html=1;shape=mxgraph.flowchart.start_1;whiteSpace=wrap;rounded=1;shadow=0;strokeColor=default;fontFamily=Tahoma;fontSize=11;fontColor=default;fillColor=default;" vertex="1" parent="1">
                    <mxGeometry x="30" y="32.5" width="100" height="60" as="geometry"/>
                </mxCell>
                <mxCell id="45" value="DISPLAY:&lt;br&gt;Welcome Page" style="strokeWidth=3;html=1;shape=mxgraph.flowchart.display;whiteSpace=wrap;rounded=1;shadow=0;strokeColor=default;fontFamily=Tahoma;fontSize=11;fontColor=default;fillColor=default;" vertex="1" parent="1">
                    <mxGeometry x="120" y="110" width="120" height="67.5" as="geometry"/>
                </mxCell>
            </root>
        </mxGraphModel>
    </diagram>
</mxfile>